# 3ds Max Wavefront OBJ Exporter v0.97b - (c)2007 guruware
# File Created: 21.12.2016 03:51:02

#
# object win_l_1
#

v  129.54723 42.31573 -21.06868
v  125.01171 58.03113 -22.86078
v  124.96029 58.10598 -9.59683
v  129.54723 42.31573 -6.50967
v  121.85426 66.18886 -24.92877
v  121.78279 66.34717 -11.85440
v  118.09086 74.95764 -27.19725
v  118.08307 74.99010 -14.57065
v  112.41025 85.29730 -29.53175
v  112.62000 84.88107 -17.17836
v  109.99599 89.94643 -32.25119
v  110.11933 89.69139 -19.00461
v  103.54458 98.95897 -34.15968
v  103.91301 97.17920 -19.74669
v  106.25792 93.91177 17.99109
v  110.46864 88.96913 18.51022
v  110.40234 89.10623 11.38940
v  105.43000 95.06355 11.25089
v  110.32172 89.27295 2.73021
v  105.08014 95.58771 2.59311
v  110.20786 89.50835 -9.49661
v  104.34991 96.46225 -9.99594
v  113.77808 82.58301 51.02600
v  118.03558 75.18803 62.41547
v  118.04176 75.16229 52.40396
v  113.57182 82.99232 38.87791
v  121.30350 67.40874 75.82024
v  121.36247 67.27812 65.03258
v  124.58206 58.65647 87.96210
v  124.62735 58.59055 76.28044
v  129.54723 42.31574 77.19571
v  112.79048 84.54276 -7.13776
v  113.01646 84.09435 6.17068
v  113.17254 83.78464 15.36275
v  113.34138 83.44958 25.30685
v  129.54723 42.31574 87.96210
v  110.62307 88.64981 35.09572
v  110.62307 88.64981 25.16638
v  107.94786 92.13901 25.30994
# 39 vertices

vn 0.96048 0.27834 0.00092
vn 0.96072 0.27751 0.00216
vn 0.96038 0.27869 0.00161
vn 0.96005 0.27982 0.00106
vn 0.93266 0.36074 0.00105
vn 0.93252 0.36112 0.00073
vn 0.93285 0.36025 0.00104
vn 0.93304 0.35976 0.00113
vn 0.91911 0.39401 -0.00016
vn 0.91898 0.39430 -0.00045
vn 0.91925 0.39368 -0.00020
vn 0.91942 0.39328 -0.00012
vn 0.87589 0.48251 0.00037
vn 0.87631 0.48175 0.00135
vn 0.87558 0.48307 0.00077
vn 0.87497 0.48418 0.00041
vn 0.88730 0.46120 0.00059
vn 0.88733 0.46114 0.00062
vn 0.88723 0.46133 0.00051
vn 0.88719 0.46140 0.00048
vn 0.79329 0.60787 0.03431
vn 0.80679 0.58854 0.05205
vn 0.77878 0.62699 0.01967
vn 0.76826 0.64009 0.00721
vn 0.76436 0.64470 0.01056
vn 0.76093 0.64881 0.00541
vn 0.76593 0.64287 0.00788
vn 0.76803 0.64034 0.01033
vn 0.76897 0.63926 0.00582
vn 0.76840 0.63994 0.00527
vn 0.76559 0.64332 0.00363
vn 0.76598 0.64285 0.00505
vn 0.86697 0.49836 0.00122
vn 0.86713 0.49808 -0.00075
vn 0.86742 0.49757 -0.00000
vn 0.86905 0.49473 -0.00010
vn 0.92181 0.38764 -0.00021
vn 0.92174 0.38780 0.00034
vn 0.92170 0.38791 0.00017
vn 0.92139 0.38864 0.00015
vn 0.93571 0.35276 0.00112
vn 0.93570 0.35278 0.00164
vn 0.93564 0.35296 0.00143
vn 0.93537 0.35367 0.00142
vn 0.95739 0.28879 0.00114
vn 0.95708 0.28982 0.00041
vn 0.87519 0.48377 0.00144
vn 0.87519 0.48378 0.00144
vn 0.95705 0.28992 0.00133
vn 0.95681 0.29073 -0.00000
vn 0.88663 0.46248 0.00053
vn 0.88678 0.46220 -0.00000
vn 0.79359 0.60845 -0.00000
vn 0.79239 0.60899 -0.03545
vn 0.76045 0.64926 0.01350
vn 0.88714 0.46149 0.00058
vn 0.88717 0.46144 0.00062
vn 0.88709 0.46159 0.00057
vn 0.88705 0.46168 0.00056
vn 0.88621 0.46328 0.00122
vn 0.88622 0.46327 0.00056
vn 0.88634 0.46303 0.00083
vn 0.88667 0.46240 0.00081
vn 0.88682 0.46212 0.00056
vn 0.88686 0.46204 0.00058
vn 0.88691 0.46194 0.00056
vn 0.88695 0.46186 0.00057
# 67 vertex normals

vt 0.46528 0.05556 0.00000
vt 0.46621 0.05556 0.00000
vt 0.47154 0.05556 0.00000
vt 0.47222 0.05556 0.00000
vt 0.16667 0.11111 0.00000
vt 0.08333 0.11111 0.00000
vt 0.08333 0.12349 0.00000
vt 0.13681 0.12106 0.00000
vt 0.08333 0.16667 0.00000
vt 0.00000 0.16667 0.00000
vt 0.04035 0.15322 0.00000
vt 0.08333 0.15881 0.00000
vt 0.06992 0.14336 0.00000
vt 0.08333 0.14966 0.00000
vt 0.09725 0.13425 0.00000
vt 0.08333 0.13902 0.00000
# 16 texture coords

g win_l_1
f 1/1/1 2/1/2 3/1/3 
f 3/1/3 4/2/4 1/1/1 
f 2/1/5 5/1/6 6/1/7 
f 6/1/7 3/1/8 2/1/5 
f 5/1/9 7/1/10 8/1/11 
f 8/1/11 6/1/12 5/1/9 
f 7/1/13 9/1/14 10/1/15 
f 10/1/15 8/1/16 7/1/13 
f 9/1/17 11/1/18 12/1/19 
f 12/1/19 10/1/20 9/1/17 
f 11/1/21 13/1/22 14/1/23 
f 14/1/23 12/1/24 11/1/21 
f 15/1/25 16/1/26 17/1/27 
f 17/1/27 18/1/28 15/1/25 
f 18/1/28 17/1/27 19/1/29 
f 19/1/29 20/1/30 18/1/28 
f 20/1/30 19/1/29 21/1/31 
f 21/1/31 22/1/32 20/1/30 
f 22/1/32 21/1/31 12/1/24 
f 12/1/24 14/1/23 22/1/32 
f 23/1/33 24/1/34 25/1/35 
f 25/1/35 26/1/36 23/1/33 
f 24/1/37 27/1/38 28/1/39 
f 28/1/39 25/1/40 24/1/37 
f 27/1/41 29/1/42 30/1/43 
f 30/1/43 28/1/44 27/1/41 
f 30/1/45 31/3/46 4/2/4 
f 4/2/4 3/1/3 30/1/45 
f 3/1/8 6/1/7 28/1/44 
f 28/1/44 30/1/43 3/1/8 
f 6/1/12 8/1/11 25/1/40 
f 25/1/40 28/1/39 6/1/12 
f 8/1/16 10/1/15 32/1/47 
f 8/1/16 32/1/47 33/1/48 
f 8/1/16 33/1/48 34/1/47 
f 8/1/16 34/1/47 35/1/47 
f 8/1/16 35/1/47 26/1/36 
f 25/1/35 8/1/16 26/1/36 
f 29/1/49 36/4/50 31/3/46 
f 31/3/46 30/1/45 29/1/49 
f 37/1/51 23/1/51 26/1/51 
f 26/1/52 38/1/52 37/1/52 
f 39/1/53 37/1/53 38/1/53 
f 15/1/54 39/1/54 38/1/54 
f 38/1/55 16/1/55 15/1/55 
f 10/5/56 12/6/57 21/7/58 
f 21/7/58 32/8/59 10/5/56 
f 38/9/60 26/10/61 35/11/62 
f 35/11/62 16/12/63 38/9/60 
f 16/12/63 35/11/62 34/13/64 
f 34/13/64 17/14/65 16/12/63 
f 17/14/65 34/13/64 33/15/66 
f 33/15/66 19/16/67 17/14/65 
f 19/16/67 33/15/66 32/8/59 
f 32/8/59 21/7/58 19/16/67 
# 55 faces

